<svg width="33" height="32" viewBox="0 0 33 32" fill="none" xmlns="http://www.w3.org/2000/svg">
<path d="M6.59195 27.201L4.34595 2H29.0339L26.7849 27.197L16.6749 30L6.59195 27.201Z" fill="#1572B6"/>
<path d="M16.6899 27.858L24.8599 25.593L26.7819 4.06104H16.6899V27.858Z" fill="#33A9DC"/>
<path d="M16.6899 13.1911H20.7799L21.0619 10.0261H16.6899V6.93506H24.4399L24.3659 7.76406L23.6069 16.2821H16.6899V13.1911V13.1911Z" fill="white"/>
<path d="M16.7089 21.218L16.6949 21.222L13.2529 20.292L13.0329 17.827H9.92993L10.3629 22.68L16.6939 24.438L16.7089 24.434V21.218V21.218Z" fill="#EBEBEB"/>
<path d="M20.517 16.151L20.145 20.29L16.698 21.22V24.436L23.034 22.68L23.081 22.158L23.618 16.151H20.517V16.151Z" fill="white"/>
<path d="M16.701 6.93506V10.0261H9.23501L9.17301 9.33106L9.03201 7.76406L8.95801 6.93506H16.701V6.93506ZM16.69 13.1911V16.2821H13.291L13.229 15.5871L13.089 14.0201L13.015 13.1911H16.69V13.1911Z" fill="#EBEBEB"/>
</svg>
