<svg width="35" height="40" viewBox="0 0 35 40" fill="none" xmlns="http://www.w3.org/2000/svg">
<g clip-path="url(#clip0_303_23)">
<path d="M34.3399 18.4414L19.0626 3.16014C18.6396 2.7376 18.0663 2.50024 17.4684 2.50024C16.8706 2.50024 16.2972 2.7376 15.8743 3.16014L12.6977 6.33436L16.7227 10.3594C18.8368 9.6453 20.8383 11.6695 20.1126 13.7719L23.9922 17.6515C26.6665 16.7297 28.7719 20.0734 26.7633 22.0805C24.6938 24.15 21.2782 21.8562 22.3883 19.1633L18.7672 15.5469V25.0664C20.7438 26.0461 20.5063 28.3359 19.4766 29.3633C18.9735 29.8661 18.2914 30.1485 17.5801 30.1485C16.8689 30.1485 16.1867 29.8661 15.6837 29.3633C14.311 27.9883 14.8188 25.6984 16.5626 24.9883V15.3789C14.9376 14.714 14.6407 12.9773 15.1063 11.8633L11.1383 7.89061L0.660218 18.3703C0.237483 18.7931 0 19.3665 0 19.9644C0 20.5623 0.237483 21.1358 0.660218 21.5586L15.9422 36.8398C16.365 37.2623 16.9383 37.4997 17.536 37.4997C18.1337 37.4997 18.707 37.2623 19.1297 36.8398L34.3399 21.6297C34.7626 21.2068 35.0001 20.6334 35.0001 20.0355C35.0001 19.4376 34.7626 18.8642 34.3399 18.4414V18.4414Z" fill="#F24E1E"/>
</g>
<defs>
<clipPath id="clip0_303_23">
<rect width="35" height="40" fill="white"/>
</clipPath>
</defs>
</svg>
