<svg width="47" height="35" viewBox="0 0 47 35" fill="none" xmlns="http://www.w3.org/2000/svg">
<g clip-path="url(#clip0_314_8)">
<path d="M10.5511 34.8276V16.8906L4.98832 11.8014L0 8.97729V31.6622C0 33.4136 1.41904 34.8276 3.16541 34.8276H10.5511V34.8276Z" fill="#4285F4"/>
<path d="M35.8738 34.8277H43.2595C45.0111 34.8277 46.4249 33.4084 46.4249 31.6623V8.97754L40.7749 12.2122L35.8738 16.8906V34.8277V34.8277Z" fill="#34A853"/>
<path d="M10.5511 16.8907L9.79419 9.88217L10.5511 3.17432L23.2124 12.6704L35.8737 3.17432L36.7204 9.52002L35.8737 16.8907L23.2124 26.3868L10.5511 16.8907Z" fill="#EA4335"/>
<path d="M35.8738 3.17425V16.8906L46.4249 8.97736V4.75686C46.4249 0.842483 41.9565 -1.38899 38.8283 0.958545L35.8738 3.17425Z" fill="#FBBC04"/>
<path d="M0 8.97744L4.85267 12.6171L10.5511 16.8907V3.17433L7.59663 0.958628C4.46295 -1.38909 0 0.842566 0 4.75676V8.97726V8.97744Z" fill="#C5221F"/>
</g>
<defs>
<clipPath id="clip0_314_8">
<rect width="46.4249" height="35" fill="white"/>
</clipPath>
</defs>
</svg>
