<svg width="25" height="28" viewBox="0 0 25 28" fill="none" xmlns="http://www.w3.org/2000/svg">
<path d="M2.247 25.201L0 0H24.69L22.44 25.197L12.33 28L2.247 25.201Z" fill="#E44F26"/>
<path d="M12.345 25.858L20.515 23.593L22.437 2.06104H12.345V25.858Z" fill="#F1662A"/>
<path d="M12.345 11.407H8.25497L7.97297 8.242H12.345V5.151H4.59497L4.66897 5.981L5.42797 14.498H12.345V11.407V11.407ZM12.345 19.434L12.331 19.438L8.88897 18.509L8.66897 16.044H5.56597L5.99897 20.896L12.331 22.654L12.345 22.65V19.434Z" fill="#EBEBEB"/>
<path d="M12.334 11.407V14.498H16.14L15.782 18.507L12.334 19.437V22.653L18.671 20.896L18.717 20.374L19.443 12.237L19.519 11.407H12.334V11.407ZM12.334 5.151V8.242H19.8L19.862 7.548L20.003 5.981L20.077 5.151H12.334V5.151Z" fill="white"/>
</svg>
