<svg width="36" height="36" viewBox="0 0 36 36" fill="none" xmlns="http://www.w3.org/2000/svg">
<path d="M18.4166 14.0767C17.5583 14.0767 16.7192 14.3313 16.0055 14.8082C15.2917 15.2851 14.7355 15.9629 14.407 16.7559C14.0785 17.5489 13.9926 18.4216 14.16 19.2634C14.3275 20.1053 14.7408 20.8786 15.3478 21.4856C15.9547 22.0926 16.7281 22.5059 17.5699 22.6734C18.4118 22.8408 19.2844 22.7549 20.0775 22.4264C20.8705 22.0979 21.5483 21.5416 22.0252 20.8279C22.5021 20.1142 22.7566 19.2751 22.7566 18.4167C22.7566 17.8468 22.6444 17.2825 22.4263 16.7559C22.2082 16.2293 21.8885 15.7509 21.4855 15.3479C21.0825 14.9449 20.604 14.6252 20.0775 14.4071C19.5509 14.189 18.9866 14.0767 18.4166 14.0767V14.0767ZM35.7941 9.78925C35.7849 8.43782 35.5361 7.09875 35.0591 5.83425C34.7079 4.90895 34.1644 4.06866 33.4646 3.36882C32.7647 2.66898 31.9244 2.1255 30.9991 1.77425C29.7346 1.29731 28.3956 1.04845 27.0441 1.03925C24.7866 0.916748 24.1216 0.916748 18.4166 0.916748C12.7116 0.916748 12.0466 0.916748 9.78913 1.03925C8.4377 1.04845 7.09863 1.29731 5.83413 1.77425C4.90883 2.1255 4.06854 2.66898 3.3687 3.36882C2.66886 4.06866 2.12538 4.90895 1.77413 5.83425C1.29719 7.09875 1.04833 8.43782 1.03913 9.78925C0.916626 12.0467 0.916626 12.7117 0.916626 18.4167C0.916626 24.1217 0.916626 24.7867 1.03913 27.0442C1.05796 28.4004 1.30648 29.7436 1.77413 31.0167C2.12383 31.9378 2.66685 32.7732 3.36663 33.4667C4.06346 34.1708 4.90556 34.7143 5.83413 35.0592C7.09863 35.5362 8.4377 35.785 9.78913 35.7942C12.0466 35.9167 12.7116 35.9167 18.4166 35.9167C24.1216 35.9167 24.7866 35.9167 27.0441 35.7942C28.3956 35.785 29.7346 35.5362 30.9991 35.0592C31.9277 34.7143 32.7698 34.1708 33.4666 33.4667C34.1664 32.7732 34.7094 31.9378 35.0591 31.0167C35.5356 29.746 35.7844 28.4013 35.7941 27.0442C35.9166 24.7867 35.9166 24.1217 35.9166 18.4167C35.9166 12.7117 35.9166 12.0467 35.7941 9.78925V9.78925ZM31.3491 23.7892C31.293 24.8692 31.0625 25.9329 30.6666 26.9392C30.3269 27.7787 29.8218 28.5413 29.1815 29.1816C28.5411 29.822 27.7786 30.327 26.9391 30.6667C25.9233 31.0405 24.8536 31.2474 23.7716 31.2792H13.0616C11.9797 31.2474 10.91 31.0405 9.89413 30.6667C9.02631 30.3443 8.24261 29.8298 7.60163 29.1617C6.96754 28.5339 6.47785 27.7755 6.16663 26.9392C5.79135 25.9245 5.59019 24.8536 5.57163 23.7717V13.0617C5.59019 11.9799 5.79135 10.909 6.16663 9.89425C6.48912 9.02643 7.00361 8.24273 7.67163 7.60175C8.30221 6.97109 9.05984 6.48191 9.89413 6.16675C10.91 5.79296 11.9797 5.58612 13.0616 5.55425H23.7716C24.8536 5.58612 25.9233 5.79296 26.9391 6.16675C27.8069 6.48924 28.5906 7.00373 29.2316 7.67175C29.8657 8.29956 30.3554 9.05798 30.6666 9.89425C31.0404 10.9101 31.2473 11.9798 31.2791 13.0617V18.4167C31.2791 22.0217 31.4016 22.3892 31.3491 23.7717V23.7892ZM28.5491 10.7692C28.3408 10.204 28.0123 9.69062 27.5863 9.26462C27.1603 8.83862 26.6469 8.51011 26.0816 8.30175C25.3055 8.0327 24.488 7.90238 23.6666 7.91675H13.1666C12.3411 7.92482 11.5235 8.07886 10.7516 8.37175C10.195 8.57065 9.68709 8.88574 9.26165 9.2961C8.83621 9.70645 8.50298 10.2027 8.28413 10.7517C8.02999 11.5311 7.90583 12.347 7.91663 13.1667V23.6667C7.93398 24.4913 8.08772 25.3074 8.37163 26.0817C8.57999 26.647 8.9085 27.1604 9.3345 27.5864C9.7605 28.0124 10.2738 28.3409 10.8391 28.5492C11.5858 28.8238 12.3715 28.9774 13.1666 29.0042H23.6666C24.4922 28.9962 25.3098 28.8421 26.0816 28.5492C26.6469 28.3409 27.1603 28.0124 27.5863 27.5864C28.0123 27.1604 28.3408 26.647 28.5491 26.0817C28.842 25.3099 28.9961 24.4923 29.0041 23.6667V13.1667C29.0046 12.3404 28.8503 11.5213 28.5491 10.7517V10.7692ZM18.4166 25.1017C17.5396 25.1018 16.6711 24.9287 15.861 24.5925C15.051 24.2564 14.3152 23.7637 13.6958 23.1427C13.0764 22.5217 12.5857 21.7846 12.2516 20.9737C11.9176 20.1627 11.7468 19.2938 11.7491 18.4167C11.7491 17.0938 12.1416 15.8007 12.877 14.7009C13.6123 13.6012 14.6574 12.7444 15.8799 12.239C17.1025 11.7335 18.4475 11.6021 19.7448 11.8615C21.042 12.1209 22.2331 12.7593 23.1673 13.696C24.1015 14.6326 24.7368 15.8254 24.9928 17.1233C25.2488 18.4212 25.1139 19.7659 24.6052 20.9871C24.0966 22.2084 23.237 23.2512 22.1354 23.9836C21.0337 24.7161 19.7395 25.1052 18.4166 25.1017V25.1017ZM25.4166 13.0442C25.0298 13.0033 24.6718 12.8206 24.4116 12.5314C24.1514 12.2423 24.0074 11.867 24.0074 11.478C24.0074 11.089 24.1514 10.7137 24.4116 10.4245C24.6718 10.1354 25.0298 9.9527 25.4166 9.91175C25.8035 9.9527 26.1615 10.1354 26.4217 10.4245C26.6819 10.7137 26.8258 11.089 26.8258 11.478C26.8258 11.867 26.6819 12.2423 26.4217 12.5314C26.1615 12.8206 25.8035 13.0033 25.4166 13.0442Z" fill="url(#paint0_linear_314_7)"/>

</svg>
