<svg width="68" height="41" viewBox="0 0 68 41" fill="none" xmlns="http://www.w3.org/2000/svg">
<path d="M16.0451 10.6893H28.8705V11.7078H17.2207V19.3727H28.1759V20.3911H17.2207V28.8064H29.0041V29.8248H16.0451V10.6893ZM30.0196 10.6893H31.3823L37.4209 19.1047L43.593 10.6892L51.9883 0L38.1957 19.9892L45.3031 29.8248H43.887L37.4209 20.8735L30.9279 29.8248H29.5386L36.6994 19.989L30.0195 10.6893H30.0196ZM45.8108 11.7078V10.6892H60.4265V11.7077H53.693V29.8246H52.5174V11.7078H45.8108V11.7078ZM0 10.6892H1.46957L21.7341 40.9845L13.3599 29.8246L1.22905 12.1365L1.17566 29.8249H0V10.6892ZM60.308 28.4988C60.0678 28.4988 59.8877 28.3131 59.8877 28.0727C59.8877 27.8325 60.0678 27.6465 60.308 27.6465C60.5511 27.6465 60.7284 27.8324 60.7284 28.0727C60.7284 28.313 60.5511 28.4988 60.308 28.4988ZM61.4632 27.3776H62.0924C62.1009 27.718 62.3496 27.9469 62.7157 27.9469C63.1246 27.9469 63.3562 27.7009 63.3562 27.2403V24.3226H63.9968V27.2431C63.9968 28.0727 63.5164 28.5505 62.7214 28.5505C61.975 28.5505 61.4632 28.087 61.4632 27.3775V27.3776ZM64.8345 27.3405H65.4694C65.5237 27.7323 65.9069 27.9811 66.4588 27.9811C66.9735 27.9811 67.3509 27.7151 67.3509 27.349C67.3509 27.0344 67.1107 26.8456 66.5646 26.7169L66.0326 26.5882C65.2862 26.4136 64.9461 26.0532 64.9461 25.4468C64.9461 24.7117 65.5466 24.2225 66.4473 24.2225C67.2851 24.2225 67.8971 24.7116 67.9343 25.4067H67.3108C67.2508 25.0263 66.919 24.7888 66.4387 24.7888C65.9326 24.7888 65.5953 25.032 65.5953 25.4038C65.5953 25.6984 65.8124 25.8673 66.3501 25.9931L66.8047 26.1047C67.6511 26.3021 68 26.6454 68 27.2661C68 28.0555 67.3881 28.5505 66.4102 28.5505C65.4952 28.5505 64.8802 28.0784 64.8345 27.3404V27.3405Z" fill="black"/>
</svg>
