<svg width="33" height="32" viewBox="0 0 33 32" fill="none" xmlns="http://www.w3.org/2000/svg">
<path d="M16.6899 18.474C18.0707 18.474 19.1899 17.3547 19.1899 15.974C19.1899 14.5933 18.0707 13.474 16.6899 13.474C15.3092 13.474 14.1899 14.5933 14.1899 15.974C14.1899 17.3547 15.3092 18.474 16.6899 18.474Z" fill="#00D8FF"/>
<path d="M16.6899 21.706C13.6851 21.7787 10.6877 21.3737 7.80994 20.506C6.48056 20.0846 5.24068 19.4208 4.15294 18.548C3.73787 18.2499 3.39221 17.8655 3.13968 17.4212C2.88715 16.9769 2.73373 16.4832 2.68994 15.974C2.68994 14.321 4.50594 12.701 7.54794 11.641C10.5027 10.7018 13.5899 10.2466 16.6899 10.293C19.7486 10.2503 22.7945 10.6973 25.7119 11.617C26.9922 12.0252 28.1901 12.6569 29.2499 13.483C29.6579 13.7673 29.9984 14.1377 30.2472 14.5682C30.4961 14.9987 30.6472 15.4786 30.6899 15.974C30.6899 17.692 28.6599 19.433 25.3899 20.515C22.5679 21.3544 19.6338 21.7561 16.6899 21.706V21.706ZM16.6899 11.489C13.7241 11.4494 10.7708 11.8821 7.94094 12.771C5.14094 13.748 3.88594 15.084 3.88594 15.971C3.88594 16.899 5.23494 18.358 8.19694 19.371C10.95 20.1969 13.8166 20.5813 16.6899 20.51C19.5063 20.5604 22.3139 20.1793 25.0149 19.38C28.0899 18.361 29.4899 16.9 29.4899 15.974C29.4395 15.6562 29.3237 15.3524 29.1498 15.0816C28.976 14.8109 28.7479 14.5791 28.4799 14.401C27.5317 13.6682 26.4616 13.1083 25.3189 12.747C22.528 11.8708 19.6149 11.4461 16.6899 11.489V11.489Z" fill="#00D8FF"/>
<path d="M11.01 28.443C10.5435 28.4537 10.0825 28.3405 9.67404 28.115C8.24204 27.289 7.74604 24.907 8.34704 21.742C9.00969 18.7131 10.1578 15.8113 11.747 13.149C13.2378 10.4781 15.1462 8.06289 17.4 5.99497C18.3932 5.08968 19.5389 4.36752 20.784 3.86197C21.2344 3.65091 21.7257 3.5415 22.223 3.5415C22.7204 3.5415 23.2117 3.65091 23.662 3.86197C25.151 4.71997 25.644 7.34797 24.949 10.721C24.2659 13.5855 23.1476 16.3284 21.633 18.854C20.1948 21.4933 18.3464 23.8875 16.157 25.947C15.1278 26.8878 13.9334 27.6299 12.634 28.136C12.1139 28.329 11.5648 28.4328 11.01 28.443V28.443ZM12.783 13.743C11.2671 16.2923 10.1667 19.0667 9.52304 21.962C8.97004 24.877 9.50104 26.63 10.273 27.076C11.073 27.539 13.015 27.1 15.373 25.04C17.4631 23.0669 19.2273 20.7752 20.6 18.25C22.051 15.8355 23.1237 13.2131 23.781 10.474C24.435 7.29897 23.87 5.35497 23.068 4.89297C22.7675 4.7778 22.4462 4.72624 22.1247 4.74156C21.8032 4.75688 21.4883 4.83874 21.2 4.98197C20.0917 5.43932 19.0728 6.0886 18.19 6.89997C16.0367 8.88076 14.2137 11.1929 12.79 13.749L12.783 13.743Z" fill="#00D8FF"/>
<path d="M22.367 28.456C21.012 28.456 19.291 27.636 17.499 26.095C15.2057 24.0083 13.265 21.5644 11.752 18.858C10.1827 16.2323 9.04366 13.3725 8.37799 10.387C8.0893 9.07347 8.0358 7.71917 8.21999 6.38698C8.26257 5.89279 8.41305 5.41395 8.66082 4.98424C8.90859 4.55453 9.24761 4.18441 9.65399 3.89998C11.141 3.03898 13.664 3.92398 16.239 6.20998C18.3796 8.23216 20.1974 10.5707 21.629 13.144C23.1973 15.7083 24.3483 18.5055 25.039 21.431C25.3401 22.7927 25.3866 24.1984 25.176 25.577C25.1259 26.0854 24.9664 26.5769 24.7086 27.018C24.4507 27.459 24.1005 27.839 23.682 28.132C23.2801 28.3547 22.8263 28.4665 22.367 28.456V28.456ZM12.787 18.256C14.2384 20.8424 16.0923 23.1813 18.279 25.185C20.528 27.12 22.312 27.536 23.079 27.085C23.879 26.62 24.469 24.722 23.861 21.651C23.1949 18.8579 22.0909 16.1879 20.59 13.74C19.2238 11.2771 17.4887 9.03784 15.445 7.09998C13.021 4.94798 11.055 4.46698 10.254 4.93098C10.0043 5.13386 9.79945 5.3863 9.65229 5.67237C9.50513 5.95843 9.41888 6.2719 9.39899 6.59298C9.23999 7.78107 9.29179 8.98788 9.55199 10.158C10.1923 13.0131 11.2847 15.7476 12.788 18.258L12.787 18.256Z" fill="#00D8FF"/>
</svg>
