<svg width="33" height="32" viewBox="0 0 33 32" fill="none" xmlns="http://www.w3.org/2000/svg">
<path fill-rule="evenodd" clip-rule="evenodd" d="M16.6899 2C19.4589 2 22.1656 2.82109 24.4679 4.35943C26.7702 5.89777 28.5646 8.08427 29.6243 10.6424C30.6839 13.2006 30.9611 16.0155 30.4209 18.7313C29.8807 21.447 28.5474 23.9416 26.5894 25.8995C24.6315 27.8574 22.1369 29.1908 19.4212 29.731C16.7055 30.2712 13.8905 29.9939 11.3324 28.9343C8.77421 27.8747 6.58771 26.0803 5.04937 23.778C3.51103 21.4757 2.68994 18.7689 2.68994 16C2.68994 12.287 4.16494 8.72601 6.79045 6.1005C9.41596 3.475 12.9769 2 16.6899 2V2Z" fill="#CC6699"/>
<path d="M25.4719 7.99204C24.8379 5.50604 20.7149 4.69204 16.8129 6.07404C14.3692 6.89519 12.1115 8.19023 10.1689 9.88504C8.01989 11.895 7.67689 13.645 7.81789 14.376C8.31789 16.956 11.8509 18.642 13.3039 19.893V19.9C12.8759 20.111 9.73989 21.7 9.00389 23.32C8.22989 25.032 9.12689 26.26 9.72189 26.425C10.6152 26.6401 11.5534 26.5701 12.405 26.2249C13.2565 25.8796 13.9786 25.2765 14.4699 24.5C14.8759 23.871 15.13 23.156 15.2119 22.4117C15.2938 21.6675 15.2014 20.9144 14.9419 20.212C15.6418 20.0342 16.3693 19.9924 17.0849 20.089C19.5409 20.376 20.0229 21.909 19.9309 22.551C19.8876 22.7796 19.7956 22.9961 19.6612 23.1859C19.5268 23.3757 19.3531 23.5344 19.1519 23.651C18.9799 23.758 18.9269 23.794 18.9419 23.874C18.9629 23.989 19.0419 23.985 19.1889 23.96C19.558 23.8438 19.8832 23.6185 20.1217 23.3138C20.3601 23.009 20.5007 22.6392 20.5249 22.253C20.5839 20.753 19.1429 19.067 16.5909 19.11C15.8497 19.0889 15.1101 19.1902 14.4019 19.41C14.3664 19.3695 14.3304 19.3295 14.2939 19.29C12.7159 17.607 9.79989 16.416 9.92289 14.153C9.96789 13.33 10.2539 11.164 15.5229 8.53604C19.8429 6.38304 23.3009 6.97604 23.8989 8.28904C24.7529 10.165 22.0509 13.65 17.5649 14.153C17.0691 14.2537 16.5569 14.2414 16.0665 14.1171C15.5761 13.9928 15.1199 13.7597 14.7319 13.435C14.4959 13.175 14.4609 13.164 14.3729 13.212C14.2299 13.291 14.3209 13.521 14.3729 13.657C14.5447 13.9666 14.7765 14.2388 15.0549 14.4575C15.3332 14.6763 15.6525 14.8373 15.9939 14.931C17.7577 15.3143 19.5973 15.1323 21.2519 14.411C23.9729 13.362 26.0949 10.437 25.4719 7.99204V7.99204ZM13.9079 20.663C14.1065 21.3477 14.0964 22.0761 13.8789 22.755C13.8556 22.8257 13.8299 22.8957 13.8019 22.965C13.7739 23.0344 13.7436 23.101 13.7109 23.165C13.5426 23.5094 13.3246 23.8271 13.0639 24.108C12.2509 24.995 11.1139 25.331 10.6269 25.048C10.1009 24.743 10.3639 23.492 11.3069 22.495C12.0315 21.7785 12.8669 21.1836 13.7809 20.733L13.9079 20.663Z" fill="white"/>
</svg>
